<?xml version="1.0" encoding="utf-8"?>
<!-- Svg Vector Icons : http://www.onlinewebfonts.com/icon -->
<!DOCTYPE svg PUBLIC "-//W3C//DTD SVG 1.1//EN" "http://www.w3.org/Graphics/SVG/1.1/DTD/svg11.dtd">
<svg version="1.1" xmlns="http://www.w3.org/2000/svg" xmlns:xlink="http://www.w3.org/1999/xlink" x="0px" y="0px" viewBox="0 0 1000 1000" enable-background="new 0 0 1000 1000" xml:space="preserve">
<metadata> Svg Vector Icons : http://www.onlinewebfonts.com/icon </metadata>
<g><g transform="translate(0.000000,511.000000) scale(0.100000,-0.100000)"><path d="M3101.5,4789.4c-6.6-6.6-87.5-26.2-183.7-45.9c-780.7-161.8-1283.6-704.1-1497.9-1616c-52.5-220.9-96.2-627.6-78.7-732.5c6.6-43.7,13.1-1165.5,13.1-2495c2.2-2650.3,6.6-2575.9-129-2989.2c-188.1-575.1-572.9-1075.9-1117.4-1454.2c-52.5-35,87.5-37.2,2580.3-32.8l2635,4.4l172.7,50.3c791.6,229.6,1237.7,793.8,1430.1,1808.4c32.8,179.3,37.2,441.7,39.4,2853.6c4.4,2610.9,4.4,2661.2,50.3,2877.7c172.7,833.1,583.8,1410.4,1191.8,1672.8c65.6,28.4,122.5,59,122.5,65.6c0,8.7-21.9,19.7-48.1,28.4C8225,4800.3,3116.8,4802.5,3101.5,4789.4z M6027.3,1413.1c2.2-148.7-4.4-288.6-15.3-310.5c-21.9-39.4-96.2-41.5-1884.9-37.2l-1865.3,4.4l-6.6,282.1c-2.2,157.5,0,297.4,4.4,312.7c8.7,24,358.6,28.4,1887.1,24l1874-6.6L6027.3,1413.1z M6023,107.6v-306.1H4142.4H2261.8l-6.6,282.1c-2.2,157.5,0,297.4,4.4,312.7c8.7,24,358.6,28.4,1887.1,24l1876.2-6.6V107.6z M6027.3-1193.5c4.4-137.8,2.2-273.3-4.4-299.6l-10.9-50.3H4131.5H2250.9v306.1v306.1l1884.9-4.4l1884.9-6.6L6027.3-1193.5z"/><path d="M8690.8,4533.5c-96.2-24.1-275.5-91.8-400.2-150.9c-181.5-89.7-253.7-139.9-382.7-269c-203.4-205.6-338.9-461.4-398-752.2l-15.3-72.2h1202.7H9900l-19.7,74.3c-37.2,137.8-150.9,393.6-242.7,546.7c-161.8,275.5-599.2,673.5-732.5,666.9C8883.2,4577.2,8787,4557.6,8690.8,4533.5z"/></g></g>
</svg>