<?xml version="1.0" ?><!DOCTYPE svg  PUBLIC '-//W3C//DTD SVG 1.1//EN'  'http://www.w3.org/Graphics/SVG/1.1/DTD/svg11.dtd'><svg enable-background="new 0 0 512 512" height="512px" id="Layer_1" version="1.1" viewBox="0 0 512 512" width="512px" xml:space="preserve" xmlns="http://www.w3.org/2000/svg" xmlns:xlink="http://www.w3.org/1999/xlink"><g id="visa"><g><path d="M481.641,97.198H29.909c-16.638,0-30.126,13.488-30.126,30.126v257.901    c0,16.638,13.488,30.126,30.126,30.126h451.732c16.638,0,30.126-13.488,30.126-30.126V127.324    C511.767,110.686,498.279,97.198,481.641,97.198z M96.906,325.355L63.518,205.681c-11.542-6.4-24.711-11.544-39.436-15.111    l0.462-2.863h60.575c8.152,0.304,14.75,2.905,17.019,11.629l13.153,63.322l3.929,19.088l36.769-93.955h39.773l-59.125,137.511    L96.906,325.355z M225.009,325.461h-37.525l23.469-137.769h37.567L225.009,325.461z M290.374,327.509    c-16.851-0.168-33.071-3.498-41.833-7.343l5.273-30.844l4.833,2.185c12.334,5.148,20.317,7.228,35.341,7.228    c10.8,0,22.376-4.213,22.481-13.446c0.063-6.03-4.853-10.338-19.477-17.093c-14.246-6.587-33.113-17.639-32.903-37.43    c0.231-26.784,26.369-45.468,63.473-45.468c14.561,0,26.222,2.994,33.66,5.789l-5.084,29.861l-3.383-1.592    c-6.913-2.794-15.821-5.473-28.092-5.278c-14.708,0-21.515,6.124-21.515,11.85c-0.084,6.456,7.962,10.705,21.095,17.082    c21.662,9.839,31.663,21.763,31.516,37.426C355.466,309.04,329.853,327.509,290.374,327.509z M453.061,325.513    c0,0-3.446-15.822-4.559-20.643c-5.484,0-43.787-0.063-48.094-0.063c-1.47,3.729-7.9,20.706-7.9,20.706H353.07l55.764-126.265    c3.95-8.972,10.673-11.424,19.666-11.424h29.016l30.402,137.689H453.061z" fill="#333333"/><path d="M431.147,224.96c-1.891,5.174-5.19,13.521-4.979,13.153c0,0-11.851,30.576-14.96,38.518h31.18    c-1.512-6.902-8.698-39.789-8.698-39.789L431.147,224.96z" fill="#333333"/></g></g></svg>